<svg xmlns="http://www.w3.org/2000/svg" viewBox="0 0 24 24" id="grid">
  <g>
    <path fill="#dadde2" d="M3,19V5A2,2,0,0,1,5,3H9V21H5A2,2,0,0,1,3,19Z"></path>
    <path fill="#55abff" d="M9,21V3H19a2,2,0,0,1,2,2V19a2,2,0,0,1-2,2Z"></path>
    <path fill="#0078ee" d="M19,2H5A3,3,0,0,0,2,5V19a3,3,0,0,0,3,3H19a3,3,0,0,0,3-3V5A3,3,0,0,0,19,2Zm-9,8h4v4H10Zm6,0h4v4H16Zm3-6a1,1,0,0,1,1,1V8H16V4ZM14,4V8H10V4ZM5,20a1,1,0,0,1-1-1V5A1,1,0,0,1,5,4H8V20Zm5,0V16h4v4Zm10-1a1,1,0,0,1-1,1H16V16h4Z"></path>
  </g>
</svg>
